<?xml version="1.0" encoding="utf-8"?>
<svg xmlns="http://www.w3.org/2000/svg" width="480" height="472" viewBox="0 0 480 472" fill="none">
<g clip-path="url(#clip0_3614_9629)">
<rect width="480" height="472" transform="translate(-0.178711)" fill="#DDCBF8"/>
<g opacity="0.5" clip-path="url(#clip1_3614_9629)">
<path d="M436.576 432.059C436.576 432.059 414.708 441.581 399.336 418.519C399.336 418.519 421.383 408.044 436.576 432.059Z" fill="#F4EEFD"/>
<path d="M467.316 486.085C467.316 486.085 486.471 471.604 475.241 446.131C475.241 446.131 455.2 460.272 467.316 486.085Z" fill="#F4EEFD"/>
<path d="M457.68 458.686C457.68 458.686 476.834 444.205 465.605 418.732C465.605 418.732 445.564 432.873 457.68 458.686Z" fill="#F4EEFD"/>
<path d="M450.886 468.001C450.886 468.001 445.29 444.477 417.934 445.753C417.934 445.753 422.883 469.995 450.886 468.001Z" fill="#F4EEFD"/>
<path d="M446.37 429.397C446.37 429.397 466.397 416.229 456.823 390.028C456.823 390.028 435.942 402.809 446.37 429.397Z" fill="#F4EEFD"/>
<path d="M437.777 423.718C437.777 423.718 447.024 393.41 415.858 375.934C415.858 375.934 405.431 406.603 437.777 423.718Z" fill="#F4EEFD"/>
<path d="M430.024 452.558C435.162 454.212 439.881 457.902 443.989 461.293C456.944 471.98 466.594 486.529 474.565 501.325C474.984 502.109 473.745 502.674 473.323 501.897C465.42 487.223 455.883 473.159 443.205 462.431C439.233 459.076 434.544 455.47 429.546 453.87C428.712 453.597 429.195 452.295 430.024 452.558Z" fill="#F4EEFD"/>
<path d="M427.824 400.089C432.799 409.652 437.453 419.391 441.943 429.202C449.346 445.355 456.791 462.061 460.796 479.533C460.998 480.404 459.656 480.628 459.454 479.758C455.469 462.4 448.012 445.831 440.694 429.772C436.22 419.959 431.549 410.222 426.574 400.659C426.165 399.87 427.412 399.307 427.816 400.087L427.824 400.089Z" fill="#F4EEFD"/>
<path d="M452.257 409.294C448.21 419.407 445.79 431.222 447.588 442.01C447.735 442.896 446.392 443.121 446.245 442.235C444.415 431.22 446.855 419.139 450.988 408.813C451.32 407.975 452.588 408.456 452.259 409.286L452.257 409.294Z" fill="#F4EEFD"/>
<path d="M460.957 436.105C457.881 448.012 457.959 460.983 459.142 473.072C459.23 473.963 457.88 474.135 457.795 473.236C456.596 461.044 456.512 447.913 459.61 435.913C459.835 435.049 461.176 435.231 460.949 436.102L460.957 436.105Z" fill="#F4EEFD"/>
<path d="M470.109 462.79C467.113 472.915 467.32 484.51 470.695 494.379C470.981 495.219 469.737 495.799 469.453 494.952C465.953 484.71 465.739 472.806 468.841 462.309C469.098 461.447 470.366 461.928 470.112 462.782L470.109 462.79Z" fill="#F4EEFD"/>
<path d="M417.249 425.609C427.592 427.928 438.357 432.608 445.905 440.275C446.525 440.9 447.473 439.891 446.853 439.266C439.136 431.436 428.147 426.633 417.591 424.261C416.74 424.066 416.398 425.414 417.249 425.609Z" fill="#F4EEFD"/>
</g>
<g opacity="0.5">
<path d="M49.3321 119.429C49.3321 119.429 74.8574 132.783 95.3616 106.323C95.3616 106.323 69.7019 91.8057 49.3321 119.429Z" fill="#F4EEFD"/>
<path d="M7.64773 181.869C7.64773 181.869 -14.1812 162.774 1.54041 133.053C1.54041 133.053 24.4662 151.815 7.64773 181.869Z" fill="#F4EEFD"/>
<path d="M21.6153 149.691C21.6153 149.691 -0.213592 130.596 15.508 100.875C15.508 100.875 38.4338 119.637 21.6153 149.691Z" fill="#F4EEFD"/>
<path d="M28.9985 161.498C28.9985 161.498 37.7647 133.64 70.6114 137.532C70.6114 137.532 62.5623 166.31 28.9985 161.498Z" fill="#F4EEFD"/>
<path d="M37.7613 115.379C37.7613 115.379 14.7679 97.7919 28.558 67.0513C28.558 67.0513 52.6138 84.2456 37.7613 115.379Z" fill="#F4EEFD"/>
<path d="M48.6029 109.278C48.6029 109.278 40.0724 71.9692 79.1228 53.5986C79.1228 53.5986 89.0448 91.4435 48.6029 109.278Z" fill="#F4EEFD"/>
<path d="M55.4603 144.689C49.1289 146.239 43.1262 150.279 37.8851 154.011C21.357 165.77 8.47931 182.466 -2.39638 199.605C-2.96926 200.513 -1.52461 201.301 -0.949425 200.402C9.83459 183.403 22.5339 167.281 38.7314 155.448C43.8049 151.748 49.7641 147.808 55.9234 146.31C56.9514 146.054 56.4814 144.444 55.4603 144.689Z" fill="#F4EEFD"/>
<path d="M62.6281 81.668C55.8112 92.7601 49.3663 104.093 43.112 115.525C32.8028 134.348 22.3956 153.833 16.0663 174.538C15.7484 175.569 17.3464 175.955 17.6643 174.924C23.9593 154.355 34.369 135.037 44.5682 116.32C50.8018 104.883 57.2673 93.5546 64.0843 82.4625C64.6457 81.5472 63.1918 80.7619 62.6373 81.6657L62.6281 81.668Z" fill="#F4EEFD"/>
<path d="M32.4004 90.6539C36.4055 103.186 38.3031 117.628 35.2089 130.47C34.9552 131.525 36.5532 131.911 36.8069 130.856C39.9605 117.745 38.0603 102.979 33.97 90.1837C33.6429 89.1466 32.0734 89.6168 32.3981 90.6446L32.4004 90.6539Z" fill="#F4EEFD"/>
<path d="M19.612 122.204C22.2925 136.814 21.0812 152.434 18.6152 166.895C18.4328 167.961 20.0445 168.285 20.2247 167.21C22.718 152.624 23.9498 136.813 21.2508 122.09C21.0545 121.03 19.4226 121.133 19.6212 122.202L19.612 122.204Z" fill="#F4EEFD"/>
<path d="M6.28851 153.564C9.02643 166.021 7.77884 179.972 2.86299 191.571C2.44628 192.558 3.89554 193.364 4.30994 192.367C9.40896 180.33 10.6906 166.008 7.85806 153.094C7.6228 152.034 6.05325 152.505 6.28621 153.555L6.28851 153.564Z" fill="#F4EEFD"/>
<path d="M73.1702 113.323C60.5108 115.226 47.1383 119.937 37.3851 128.524C36.5848 129.224 35.5298 127.927 36.3301 127.227C46.3012 118.458 59.9536 113.619 72.8747 111.67C73.9166 111.508 74.2122 113.161 73.1702 113.323Z" fill="#F4EEFD"/>
</g>
<path opacity="0.5" d="M23.2917 358.318C49.6697 370.919 64.034 397.166 71.8691 422.957C70.7591 393.902 73.6973 360.929 87.5392 335.726C119.075 278.4 188.938 255.482 191.158 348.915C193.378 442.349 81.1406 490.338 81.1406 490.338C81.1406 490.338 21.8552 480.74 -18.1036 434.122C-53.492 392.857 -37.4301 329.197 23.3569 358.252L23.2917 358.318Z" fill="#F4EEFD"/>
<path d="M69.513 58.9494C69.513 58.9494 79.3521 46.149 71.6773 35.8329C63.9911 25.5293 52.7268 34.0136 51.2816 43.9982C49.849 53.9943 55.137 58.5848 58.2451 56.4209C61.3532 54.257 54.8986 46.0468 42.8482 47.0076C30.7978 47.9685 22.3481 64.5468 52.0246 70.2141C52.0246 70.2141 64.2056 67.8559 69.513 58.9494Z" fill="#AF85EE"/>
<path d="M77.1626 56.2367C78.0616 58.0119 73.501 63.7632 64.3636 69.8159C55.2355 75.8617 49.6653 76.4727 47.9961 75.8655C46.3289 75.261 48.477 72.3359 52.2547 70.3724C56.0303 68.4062 61.5885 65.4528 67.2655 60.8349C74.001 55.354 76.7938 55.5143 77.1626 56.2367Z" fill="#AF85EE"/>
<path d="M426.461 360.044C426.461 360.044 417.318 348.151 424.449 338.565C431.591 328.992 442.057 336.875 443.4 346.152C444.731 355.44 439.818 359.705 436.93 357.695C434.042 355.684 440.04 348.056 451.236 348.948C462.433 349.841 470.284 365.245 442.71 370.511C442.71 370.511 431.392 368.32 426.461 360.044Z" fill="#AF85EE"/>
<path d="M419.353 357.524C418.517 359.173 422.755 364.517 431.245 370.141C439.726 375.758 444.902 376.326 446.453 375.762C448.002 375.2 446.006 372.482 442.496 370.658C438.988 368.831 433.824 366.087 428.549 361.796C422.29 356.703 419.696 356.852 419.353 357.524Z" fill="#AF85EE"/>
<path opacity="0.5" d="M446.548 259.703C449.266 266.854 447.244 274.418 444.069 280.717C449.107 275.015 455.62 269.303 462.794 267.032C479.12 261.875 496.487 270.156 480.03 288.247C463.572 306.338 433.652 295.149 433.652 295.149C433.652 295.149 424.161 282.622 425.017 266.578C425.771 252.372 440.312 243.221 446.572 259.703L446.548 259.703Z" fill="#F4EEFD"/>
<path opacity="0.5" d="M62.4873 241.456C63.8954 245.161 62.848 249.08 61.2028 252.343C63.8131 249.389 67.1872 246.429 70.9036 245.253C79.362 242.581 88.3596 246.871 79.8332 256.244C71.3068 265.617 55.8062 259.82 55.8062 259.82C55.8062 259.82 50.8892 253.33 51.3325 245.018C51.7231 237.658 59.2564 232.917 62.4998 241.456L62.4873 241.456Z" fill="#F4EEFD"/>
<path opacity="0.5" fill-rule="evenodd" clip-rule="evenodd" d="M-2424.56 -594.772C-2526.91 -579.944 -2550.44 -450.455 -2530.75 -366.384C-2503.85 -251.457 -2376.98 -199.649 -2271.56 -184.667C-2238.86 -180.023 -2203.92 -179.3 -2170.69 -185.455C-2150.45 -176.342 -2128.96 -169.713 -2108.58 -164.418C-1960.82 -126.035 -1804.71 -111.794 -1652.35 -115.762C-1354.83 -123.476 -1069.58 -214.001 -790.835 -310.756C-765.198 -319.654 -739.578 -328.607 -713.958 -337.561C-600.11 -377.348 -486.25 -417.14 -370.782 -452.014C-225.694 -495.812 -76.1885 -535.382 76.062 -540.314C210.872 -544.69 349.319 -519.138 464.833 -446.674C570.514 -380.365 653.449 -273.152 666.696 -146.395C678.793 -30.5773 616.193 83.571 511.996 135.12C480.075 150.903 443.888 161.419 407.028 165.221C405.33 137.704 401.334 110.227 394.515 82.9035C380.489 26.6824 353.586 -29.1681 302.712 -60.468C261.189 -86.0198 203.079 -87.9482 176.882 -39.9228C154.284 1.5014 161.445 61.6908 179.962 103.263C200.074 148.396 238.146 180.067 283.416 198.572C319.463 213.279 358.252 218.723 396.774 216.347C392.356 292.582 368.044 370.8 346.944 438.18C307.796 563.195 266.755 700.151 293.769 836.698C314.327 940.685 379.895 1046.04 492.849 1062.73C595.079 1077.83 703.803 1017.19 751.412 926.89C802.842 829.281 787.814 700.336 733.266 607.4C708.263 564.817 674.289 528.163 633.693 500.352V549.762C714.828 606.473 783.194 708.733 769.446 809.441C754.566 918.434 661.167 996.091 558.974 1012.22C446.836 1029.95 353.734 958.116 315.663 855.723C272.058 738.412 310.77 616.187 347.075 501.557C350.286 491.421 353.478 481.344 356.592 471.334C382.319 388.723 404.84 302.242 407.692 215.465C464.79 209.759 520.669 187.103 565.468 152.216C655.972 81.7169 685.212 -36.066 678.014 -146.098C670.258 -264.548 616.935 -373.653 526.58 -450.902C310.653 -635.475 6.74561 -603.878 -248.329 -536.976C-406.722 -495.42 -561.174 -441.406 -715.638 -387.388C-829.279 -347.646 -942.927 -307.902 -1058.15 -273.115C-1194.04 -232.099 -1332.38 -197.98 -1473.27 -179.771C-1620.22 -160.784 -1769.28 -160.264 -1916.29 -178.733C-1978.04 -186.472 -2040.87 -196.124 -2101.33 -211.971C-2066.39 -235.464 -2047.68 -272.252 -2046.99 -316.542C-2046.17 -368.758 -2067.51 -421.753 -2117.08 -445.079C-2166.66 -468.406 -2221.69 -441.519 -2246.7 -395.645C-2271.71 -349.77 -2270.78 -288.802 -2244.51 -245.523C-2241.45 -240.492 -2238.07 -235.755 -2234.39 -231.293C-2270.96 -232.361 -2307.47 -239.301 -2342.43 -249.454C-2431.53 -275.377 -2558.21 -354.035 -2517.06 -463.881C-2501.59 -505.108 -2468.67 -537.75 -2424.56 -544.741V-594.772ZM-2172.14 -235.682C-2128.91 -243.529 -2083.78 -263.248 -2064.31 -304.823C-2058.23 -317.84 -2056.86 -324.552 -2062.2 -337.903C-2066.99 -349.844 -2074.07 -360.71 -2082.72 -370.204C-2100.72 -390.045 -2125.76 -403.581 -2152.93 -404.248C-2178.64 -404.842 -2203.02 -393.716 -2221.24 -375.952C-2235.01 -362.527 -2254.56 -337.198 -2252.48 -316.69C-2249.89 -291.324 -2223.32 -267.033 -2203.8 -253.497C-2193.84 -246.593 -2183.18 -240.744 -2172.14 -235.682ZM396.531 166.121C393.027 118.754 379.474 73.3245 349.987 33.0981C319.039 -9.14203 254.696 -51.9013 203.562 -17.0041C185.305 -4.50635 171.279 16.8917 176.956 39.2542C183.413 64.6206 198.107 88.4664 216.735 106.749C264.35 153.488 330.966 170.586 396.531 166.121Z" fill="#F4EEFD"/>
<g opacity="0.5">
<path d="M454.789 73.0192C454.789 73.0192 432.477 61.0512 414.216 84.1195C414.216 84.1195 436.636 97.1114 454.789 73.0192Z" fill="#F4EEFD"/>
<path d="M491.991 18.5215C491.991 18.5215 511.002 35.5011 496.915 61.4793C496.915 61.4793 476.937 44.7821 491.991 18.5215Z" fill="#F4EEFD"/>
<path d="M479.423 46.6751C479.423 46.6751 498.434 63.6546 484.347 89.6329C484.347 89.6329 464.369 72.9356 479.423 46.6751Z" fill="#F4EEFD"/>
<path d="M473.041 36.2311C473.041 36.2311 465.084 60.6349 436.252 56.9158C436.252 56.9158 443.587 31.6969 473.041 36.2311Z" fill="#F4EEFD"/>
<path d="M464.921 76.6837C464.921 76.6837 484.97 92.3491 472.571 119.241C472.571 119.241 451.585 103.911 464.921 76.6837Z" fill="#F4EEFD"/>
<path d="M455.338 81.9471C455.338 81.9471 462.496 114.814 428.009 130.605C428.009 130.605 419.633 97.2542 455.338 81.9471Z" fill="#F4EEFD"/>
<path d="M449.632 50.7637C455.211 49.4584 460.523 45.9627 465.163 42.7307C479.796 32.5462 491.265 17.9891 500.979 3.02511C501.491 2.23198 500.228 1.52668 499.715 2.31167C490.083 17.1529 478.775 31.2068 464.433 41.4597C459.94 44.6652 454.667 48.0741 449.24 49.3346C448.334 49.5507 448.733 50.9697 449.632 50.7637Z" fill="#F4EEFD"/>
<path d="M442.761 106.085C448.853 96.3988 454.62 86.4972 460.22 76.5064C469.451 60.0574 478.775 43.0272 484.525 24.8881C484.814 23.9847 483.413 23.6307 483.124 24.5341C477.405 42.5539 468.081 59.438 458.948 75.7949C453.365 85.79 447.58 95.6872 441.488 105.374C440.986 106.173 442.257 106.876 442.753 106.087L442.761 106.085Z" fill="#F4EEFD"/>
<path d="M469.408 98.4624C466.002 87.4117 464.466 74.702 467.302 63.4437C467.534 62.5194 466.133 62.1654 465.901 63.0898C463.01 74.5847 464.546 87.5785 468.025 98.8613C468.303 99.7757 469.686 99.3767 469.41 98.4705L469.408 98.4624Z" fill="#F4EEFD"/>
<path d="M480.934 70.8499C478.711 57.9857 479.917 44.2687 482.216 31.5816C482.386 30.6463 480.972 30.347 480.804 31.2904C478.481 44.0868 477.254 57.9719 479.493 70.9357C479.656 71.869 481.091 71.7932 480.926 70.8518L480.934 70.8499Z" fill="#F4EEFD"/>
<path d="M492.928 43.4096C490.635 32.4375 491.858 20.1876 496.284 10.0384C496.659 9.17461 495.393 8.45303 495.02 9.32495C490.429 19.8577 489.172 32.4338 491.545 43.8086C491.742 44.7422 493.125 44.3433 492.93 43.4177L492.928 43.4096Z" fill="#F4EEFD"/>
<path d="M433.783 78.169C444.926 76.6113 456.722 72.5924 465.371 65.1345C466.081 64.5264 466.996 65.6759 466.287 66.284C457.444 73.8998 445.401 78.0292 434.028 79.6247C433.111 79.7575 432.866 78.3018 433.783 78.169Z" fill="#F4EEFD"/>
</g>
<path fill-rule="evenodd" clip-rule="evenodd" d="M427.022 96.6456C422.502 100.346 417.822 88.0656 417.822 88.0656V88.0556C417.822 88.0556 411.142 97.7956 408.722 93.4156C406.302 89.0456 414.102 84.3956 414.102 84.3956C414.102 84.3956 402.802 82.0856 405.382 77.0056C407.962 71.9356 416.212 79.2256 416.212 79.2256C416.212 79.2256 412.722 66.4756 418.822 67.1456C424.912 67.8156 420.692 79.8756 420.692 79.8756C420.692 79.8756 430.412 70.5856 431.832 76.6956C433.262 82.8056 421.862 84.7156 421.862 84.7156C421.862 84.7156 431.552 92.9456 427.022 96.6456ZM416.352 81.8056C415.652 83.1456 416.112 84.8356 417.382 85.5756L417.372 85.5856C418.642 86.3256 420.242 85.8356 420.942 84.4956C421.642 83.1456 421.182 81.4556 419.912 80.7156C418.652 79.9756 417.052 80.4656 416.352 81.8056Z" fill="#AF85EE"/>
<path fill-rule="evenodd" clip-rule="evenodd" d="M43.1261 428.233C37.9561 429.503 38.4961 417.233 38.4961 417.233C38.4961 417.233 29.3061 422.713 28.8661 418.033C28.4261 413.363 36.6961 412.633 36.6961 412.633C36.6961 412.633 28.0061 406.053 32.0361 402.833C36.0661 399.613 40.3661 409.133 40.3661 409.133C40.3661 409.133 42.0861 396.953 46.9761 400.013C51.8761 403.073 43.9161 411.513 43.9161 411.513C43.9161 411.513 55.4961 407.653 54.4661 413.383C53.4361 419.113 43.1261 416.063 43.1261 416.063C43.1261 416.063 48.2961 426.963 43.1261 428.233ZM39.5462 411.363C38.4662 412.203 38.2362 413.813 39.0362 414.963C39.8362 416.103 41.3562 416.353 42.4362 415.503C43.5162 414.663 43.7462 413.043 42.9462 411.903C42.1462 410.763 40.6262 410.523 39.5462 411.363Z" fill="#AF85EE"/>
<path fill-rule="evenodd" clip-rule="evenodd" d="M408.991 50.3217C404.57 48.2214 411.384 39.6368 411.384 39.6368V39.6246C411.384 39.6246 401.859 38.2203 403.984 34.5691C406.109 30.9302 412.483 35.2408 412.483 35.2408C412.483 35.2408 409.626 25.3863 414.229 25.4107C418.602 25.4338 417.156 33.8837 417.001 34.7847C416.993 34.8348 416.988 34.8616 416.989 34.8622C416.989 34.8622 424.609 27.0348 426.55 32.1147C428.492 37.1946 418.308 38.6599 418.308 38.6599C418.308 38.6599 428.712 42.6408 424.975 46.1943C421.238 49.7478 415.353 41.4929 415.353 41.4929C415.353 41.4929 413.411 52.422 408.991 50.3217ZM415.218 35.9859C413.985 35.9737 412.983 37.0117 412.959 38.306C412.947 39.6004 413.924 40.6628 415.145 40.6872C416.378 40.7117 417.392 39.6737 417.404 38.3793C417.428 37.0727 416.451 36.0103 415.218 35.9859Z" fill="#AF85EE"/>
<path fill-rule="evenodd" clip-rule="evenodd" d="M45.335 301.978C40.815 305.688 36.135 293.408 36.135 293.408V293.388C36.135 293.388 29.455 303.128 27.035 298.748C24.615 294.378 32.415 289.728 32.415 289.728C32.415 289.728 21.115 287.418 23.695 282.338C26.275 277.268 34.525 284.558 34.525 284.558C34.525 284.558 31.035 271.808 37.135 272.478C43.225 273.148 39.005 285.208 39.005 285.208C39.005 285.208 48.725 275.918 50.145 282.028C51.575 288.138 40.175 290.048 40.175 290.048C40.175 290.048 49.865 298.278 45.335 301.978ZM34.665 287.158C33.965 288.498 34.425 290.188 35.695 290.928H35.685C36.955 291.668 38.555 291.178 39.255 289.838C39.955 288.498 39.495 286.808 38.225 286.068C36.965 285.328 35.365 285.818 34.665 287.158Z" fill="#AF85EE"/>
</g>
<defs>
<clipPath id="clip0_3614_9629">
<rect width="480" height="472" fill="white" transform="translate(-0.178711)"/>
</clipPath>
<clipPath id="clip1_3614_9629">
<rect width="97.4428" height="102.083" fill="white" transform="matrix(-0.95052 -0.310665 -0.310665 0.95052 506.126 405.438)"/>
</clipPath>
</defs>
</svg>