<?xml version="1.0" encoding="utf-8"?>
<svg xmlns="http://www.w3.org/2000/svg" width="480" height="472" viewBox="0 0 480 472" fill="none">
<g clip-path="url(#clip0_3536_21287)">
<rect width="480" height="472" transform="translate(-0.178711)" fill="#DDCBF8"/>
<g opacity="0.5">
<path d="M61.5091 400.328C61.5091 400.328 99.3223 408.372 116.271 366.769C116.271 366.769 77.8636 357.27 61.5091 400.328Z" fill="#F4EEFD"/>
<path d="M30.1758 496.083C30.1758 496.083 -4.93256 479.285 4.65675 435.193C4.65675 435.193 41.0627 451.165 30.1758 496.083Z" fill="#F4EEFD"/>
<path d="M36.6109 449.449C36.6109 449.449 1.50254 432.65 11.0919 388.559C11.0919 388.559 47.4978 404.531 36.6109 449.449Z" fill="#F4EEFD"/>
<path d="M50.4167 462.044C50.4167 462.044 51.6889 422.872 95.549 416.044C95.549 416.044 95.536 456.146 50.4167 462.044Z" fill="#F4EEFD"/>
<path d="M45.0913 399.271C45.0913 399.271 9.02211 384.841 15.7469 340.13C15.7469 340.13 53.0474 353.668 45.0913 399.271Z" fill="#F4EEFD"/>
<path d="M56.9014 387.471C56.9014 387.471 32.405 342.329 76.2453 304.485C76.2453 304.485 102.734 349.818 56.9014 387.471Z" fill="#F4EEFD"/>
<path d="M78.5499 430.764C70.9264 435.054 64.6263 442.443 59.1996 449.158C42.0824 470.324 31.4662 496.554 23.5974 522.633C23.1849 524.014 25.3365 524.511 25.7553 523.141C33.5564 497.277 44.1494 471.854 60.8123 450.71C66.034 444.097 72.3138 436.852 79.7339 432.692C80.97 431.99 79.7814 430.079 78.5499 430.764Z" fill="#F4EEFD"/>
<path d="M65.0604 346.721C60.2542 363.519 56.016 380.494 52.06 397.528C45.5313 425.579 39.1151 454.521 38.41 483.568C38.3713 485.015 40.5762 484.938 40.6149 483.49C41.3248 454.632 47.8043 425.904 54.229 398.03C58.1565 380.996 62.4232 364.02 67.2293 347.222C67.6245 345.836 65.4618 345.346 65.0714 346.715L65.0604 346.721Z" fill="#F4EEFD"/>
<path d="M29.2351 369.249C38.9366 384.001 46.6037 401.983 47.241 419.698C47.2938 421.153 49.4987 421.075 49.4459 419.62C48.7879 401.534 41.0007 383.136 31.094 368.075C30.2969 366.852 28.438 368.027 29.2288 369.238L29.2351 369.249Z" fill="#F4EEFD"/>
<path d="M24.0974 414.646C32.837 432.561 36.911 453.188 38.9451 472.769C39.0942 474.213 41.2943 474.05 41.1389 472.595C39.0952 452.842 34.9785 431.961 26.1742 413.906C25.5379 412.607 23.4658 413.329 24.1085 414.64L24.0974 414.646Z" fill="#F4EEFD"/>
<path d="M18.1995 459.99C26.2356 475.101 29.6602 493.583 27.4943 510.35C27.3121 511.776 29.4764 512.295 29.6522 510.857C31.8967 493.458 28.3819 474.483 20.0584 458.815C19.3716 457.53 17.5127 458.705 18.1931 459.979L18.1995 459.99Z" fill="#F4EEFD"/>
<path d="M90.1155 383.829C74.4402 390.86 58.857 401.777 49.3511 416.397C48.5695 417.591 46.7376 416.295 47.5193 415.101C57.241 400.168 73.1396 388.983 89.1366 381.799C90.4248 381.214 91.4038 383.244 90.1155 383.829Z" fill="#F4EEFD"/>
</g>
<path opacity="0.5" fill-rule="evenodd" clip-rule="evenodd" d="M-3075.86 777.511C-3193.22 762.682 -3220.19 633.194 -3197.62 549.123C-3166.77 434.196 -3021.3 382.388 -2900.43 367.405C-2862.94 362.762 -2822.87 362.039 -2784.77 368.194C-2761.56 359.081 -2736.93 352.452 -2713.56 347.157C-2544.14 308.773 -2365.14 294.533 -2190.44 298.501C-1849.29 306.215 -1522.23 396.74 -1202.62 493.495C-1173.22 502.392 -1143.85 511.346 -1114.47 520.299C-983.931 560.087 -853.378 599.879 -720.982 634.753C-554.622 678.551 -383.198 718.121 -208.626 723.053C-54.052 727.429 104.692 701.877 237.142 629.413C358.317 563.104 453.41 455.891 468.599 329.133C482.47 213.316 410.693 99.1677 291.22 47.6192C254.618 31.8359 213.126 21.3198 170.862 17.5173C168.915 45.0343 164.334 72.5117 156.515 99.8353C140.432 156.056 109.585 211.907 51.2527 243.207C3.64185 268.759 -62.9873 270.687 -93.0254 222.662C-118.937 181.237 -110.725 121.048 -89.4939 79.4753C-66.4333 34.3426 -22.78 2.67188 29.1277 -15.8337C70.459 -30.5399 114.935 -35.9846 159.105 -33.6087C154.039 -109.844 126.162 -188.061 101.969 -255.442C57.0818 -380.456 10.0242 -517.412 40.9988 -653.96C64.5701 -757.947 139.751 -863.306 269.265 -879.994C386.483 -895.088 511.147 -834.454 565.735 -744.151C624.706 -646.543 607.474 -517.597 544.929 -424.661C516.261 -382.078 477.305 -345.424 430.759 -317.613V-367.023C523.789 -423.734 602.177 -525.994 586.413 -626.702C569.352 -735.696 462.26 -813.352 345.084 -829.484C216.506 -847.211 109.755 -775.377 66.1016 -672.984C16.1047 -555.674 60.4917 -433.448 102.12 -318.818C105.801 -308.682 109.461 -298.605 113.031 -288.596C142.53 -205.984 168.353 -119.503 171.624 -32.7262C237.092 -27.02 301.164 -4.36383 352.53 30.5228C456.303 101.022 489.831 218.805 481.576 328.837C472.684 447.287 411.543 556.392 307.941 633.64C60.3579 818.214 -288.105 786.617 -580.576 719.715C-762.191 678.158 -939.287 624.145 -1116.4 570.127C-1246.7 530.385 -1377.01 490.641 -1509.13 455.854C-1664.94 414.837 -1823.55 380.719 -1985.11 362.51C-2153.59 343.522 -2324.51 343.003 -2493.08 361.472C-2563.88 369.21 -2635.91 378.863 -2705.24 394.71C-2665.18 418.202 -2643.73 454.99 -2642.93 499.28C-2641.99 551.496 -2666.46 604.491 -2723.3 627.818C-2780.15 651.145 -2843.24 624.258 -2871.92 578.383C-2900.6 532.509 -2899.53 471.541 -2869.41 428.262C-2865.91 423.23 -2862.02 418.494 -2857.81 414.032C-2899.74 415.1 -2941.61 422.04 -2981.69 432.193C-3083.85 458.116 -3229.11 536.774 -3181.92 646.62C-3164.19 687.847 -3126.43 720.489 -3075.86 727.479V777.511ZM-2786.43 418.421C-2736.87 426.268 -2685.11 445.987 -2662.8 487.561C-2655.82 500.578 -2654.25 507.291 -2660.37 520.642C-2665.86 532.583 -2673.99 543.449 -2683.9 552.943C-2704.54 572.783 -2733.26 586.32 -2764.4 586.987C-2793.89 587.58 -2821.84 576.455 -2842.73 558.691C-2858.52 545.266 -2880.94 519.937 -2878.56 499.429C-2875.58 474.062 -2845.12 449.772 -2822.74 436.236C-2811.31 429.332 -2799.1 423.483 -2786.43 418.421ZM158.826 16.6181C154.809 63.9849 139.268 109.414 105.458 149.641C69.9734 191.881 -3.80347 234.64 -62.4338 199.743C-83.3672 187.245 -99.4502 165.847 -92.9404 143.485C-85.5371 118.118 -68.6885 94.2723 -47.3296 75.9894C7.26611 29.251 83.6489 12.153 158.826 16.6181Z" fill="#F4EEFD"/>
<path d="M59.199 281.806C59.199 281.806 69.0382 269.005 61.3634 258.689C53.6771 248.386 42.4128 256.87 40.9677 266.855C39.535 276.851 44.8231 281.441 47.9312 279.277C51.0393 277.113 44.5846 268.903 32.5342 269.864C20.4838 270.825 12.0341 287.403 41.7106 293.071C41.7106 293.071 53.8916 290.712 59.199 281.806Z" fill="#AF85EE"/>
<path d="M66.8487 279.093C67.7477 280.868 63.187 286.62 54.0496 292.672C44.9215 298.718 39.3514 299.329 37.6821 298.722C36.0149 298.117 38.163 295.192 41.9408 293.229C45.7164 291.263 51.2745 288.309 56.9516 283.691C63.687 278.21 66.4798 278.371 66.8487 279.093Z" fill="#AF85EE"/>
<path d="M398.498 220.11C398.498 220.11 389.356 208.217 396.487 198.631C403.629 189.058 414.095 196.941 415.438 206.218C416.769 215.506 411.856 219.771 408.968 217.761C406.08 215.75 412.077 208.122 423.274 209.014C434.471 209.907 442.322 225.311 414.748 230.577C414.748 230.577 403.43 228.386 398.498 220.11Z" fill="#AF85EE"/>
<path d="M391.391 217.59C390.555 219.239 394.793 224.583 403.283 230.207C411.764 235.824 416.94 236.392 418.491 235.828C420.04 235.266 418.044 232.548 414.534 230.724C411.026 228.897 405.861 226.153 400.587 221.862C394.328 216.769 391.733 216.918 391.391 217.59Z" fill="#AF85EE"/>
<path opacity="0.5" d="M7.96607 117.868C14.3893 116.697 20.8026 119.555 26.5921 124.038C24.7438 120.203 23.3888 116.186 22.8882 112.176C20.394 92.07 33.7865 73.6193 51.318 96.6949C68.8495 119.77 49.3635 152.22 49.3635 152.22C49.3635 152.22 29.7778 154.812 11.2675 150.356C-5.12169 146.416 -12.5829 121.581 7.9542 117.851L7.96607 117.868Z" fill="#F4EEFD"/>
<path opacity="0.5" d="M409.715 258.911C404.523 264.298 400.316 270.923 396.945 278.047C396.664 264.494 393.317 251.934 384.157 244.047C354.853 218.807 327.822 258.421 341.209 286.641C356.295 318.468 382.854 343.663 382.854 343.663C382.854 343.663 401.571 339.813 441.785 304.283C477.982 272.246 435.79 231.97 409.705 258.947L409.715 258.911Z" fill="#F4EEFD"/>
<path fill-rule="evenodd" clip-rule="evenodd" d="M442.095 60.8932C437.575 64.5932 432.895 52.3132 432.895 52.3132V52.3032C432.895 52.3032 426.215 62.0432 423.795 57.6632C421.375 53.2932 429.175 48.6432 429.175 48.6432C429.175 48.6432 417.875 46.3332 420.455 41.2532C423.035 36.1832 431.285 43.4732 431.285 43.4732C431.285 43.4732 427.795 30.7232 433.895 31.3932C439.985 32.0632 435.765 44.1232 435.765 44.1232C435.765 44.1232 445.485 34.8332 446.905 40.9432C448.335 47.0532 436.935 48.9632 436.935 48.9632C436.935 48.9632 446.625 57.1932 442.095 60.8932ZM431.426 46.0532C430.726 47.3932 431.186 49.0832 432.456 49.8232L432.446 49.8332C433.716 50.5732 435.316 50.0832 436.016 48.7432C436.716 47.3932 436.256 45.7032 434.986 44.9632C433.726 44.2232 432.126 44.7132 431.426 46.0532Z" fill="#AF85EE"/>
<path fill-rule="evenodd" clip-rule="evenodd" d="M75.6363 110.229C70.4663 111.499 71.0063 99.2293 71.0063 99.2293C71.0063 99.2293 61.8163 104.709 61.3763 100.029C60.9363 95.3593 69.2063 94.6293 69.2063 94.6293C69.2063 94.6293 60.5163 88.0493 64.5463 84.8293C68.5763 81.6093 72.8763 91.1293 72.8763 91.1293C72.8763 91.1293 74.5963 78.9493 79.4863 82.0093C84.3863 85.0693 76.4263 93.5093 76.4263 93.5093C76.4263 93.5093 88.0063 89.6493 86.9763 95.3793C85.9463 101.109 75.6363 98.0593 75.6363 98.0593C75.6363 98.0593 80.8063 108.959 75.6363 110.229ZM72.0565 93.359C70.9765 94.199 70.7465 95.809 71.5465 96.959C72.3465 98.099 73.8665 98.349 74.9465 97.499C76.0265 96.659 76.2565 95.039 75.4565 93.899C74.6565 92.759 73.1365 92.519 72.0565 93.359Z" fill="#AF85EE"/>
<path fill-rule="evenodd" clip-rule="evenodd" d="M386.562 383.914C390.519 380.353 395.838 391.423 395.838 391.423C395.838 391.423 401.35 382.252 403.949 386.169C406.542 390.078 399.598 394.627 399.598 394.627C399.598 394.627 410.365 396.322 408.334 401.064C406.303 405.806 398.016 399.446 398.016 399.446C398.016 399.446 402.253 410.994 396.498 410.606C390.733 410.224 393.763 399.025 393.763 399.025C393.763 399.025 385.379 407.897 383.581 402.36C381.782 396.823 392.31 394.641 392.31 394.641C392.31 394.641 382.605 387.476 386.562 383.914ZM397.686 397.093C398.241 395.843 397.683 394.315 396.435 393.679C395.191 393.052 393.733 393.55 393.183 394.809C392.628 396.06 393.19 397.596 394.434 398.223C395.677 398.85 397.13 398.344 397.686 397.093Z" fill="#AF85EE"/>
<path fill-rule="evenodd" clip-rule="evenodd" d="M418.97 427.741C415.35 426.021 420.93 418.991 420.93 418.991V418.981C420.93 418.981 413.13 417.831 414.87 414.841C416.61 411.861 421.83 415.391 421.83 415.391C421.83 415.391 419.49 407.321 423.26 407.341C426.84 407.36 425.656 414.28 425.53 415.018C425.523 415.059 425.519 415.081 425.52 415.081C425.52 415.081 431.76 408.671 433.35 412.831C434.94 416.991 426.6 418.191 426.6 418.191C426.6 418.191 435.12 421.451 432.06 424.361C429 427.271 424.18 420.511 424.18 420.511C424.18 420.511 422.59 429.461 418.97 427.741ZM424.07 416.002C423.06 415.992 422.24 416.842 422.22 417.902C422.21 418.962 423.01 419.832 424.01 419.852C425.02 419.872 425.85 419.022 425.86 417.962C425.88 416.892 425.08 416.022 424.07 416.002Z" fill="#AF85EE"/>
<path fill-rule="evenodd" clip-rule="evenodd" d="M57.4217 73.0909C53.8144 76.0518 50.0794 66.2514 50.0794 66.2514V66.2355C50.0794 66.2355 44.7483 74.0087 42.8169 70.5132C40.8856 67.0256 47.1106 63.3145 47.1106 63.3145C47.1106 63.3145 38.0923 61.471 40.1514 57.4167C42.2104 53.3705 48.7945 59.1885 48.7945 59.1885C48.7945 59.1885 46.0092 49.013 50.8775 49.5477C55.7378 50.0824 52.3699 59.7072 52.3699 59.7072C52.3699 59.7072 60.1272 52.2931 61.2605 57.1693C62.4017 62.0456 53.3036 63.5699 53.3036 63.5699C53.3036 63.5699 61.037 70.1381 57.4217 73.0909ZM48.9064 61.2631C48.3477 62.3325 48.7148 63.6813 49.7284 64.2718H49.7204C50.734 64.8624 52.0109 64.4714 52.5696 63.4019C53.1282 62.3325 52.7611 60.9838 51.7475 60.3932C50.742 59.8026 49.465 60.1937 48.9064 61.2631Z" fill="#AF85EE"/>
</g>
<defs>
<clipPath id="clip0_3536_21287">
<rect width="480" height="472" fill="white" transform="translate(-0.178711)"/>
</clipPath>
</defs>
</svg>