<svg xmlns="http://www.w3.org/2000/svg" width="436" height="280" fill="none" xmlns:v="https://vecta.io/nano"><g clip-path="url(#A)"><path d="M198.43 527.778c-69.366 24.439-145.533 27.953-216.872 9.449-32.825-8.522-68.948-21.095-92.179-47.261-10.085-11.362-19.08-26.926-18.681-42.624-.023.769-1.23 2.449.387-.008 1.746-2.657 2.484-6.744 3.881-9.697 3.691-7.702 8.251-14.884 13.58-21.554 44.379-55.602 126.816-71.053 156.319-140.43 14.746-34.707 15-73.604 11.785-110.595-1.397-16.015-3.553-32.272-2.642-48.37.683-12.059 6.863-23.791 13.164-33.823 34.98-55.604 106.894-72.722 163.731-40.786 30.498 17.13 47.59 43.685 59.776 75.698 6.651 17.456 13.097 35.663 25.821 49.764 9.749 10.807 22.303 18.38 36.211 22.448 73.554 21.438 131.136-43.797 183.517-83.475 29.838-22.604 65.636-42.549 104.381-37.976 30.108 3.563 62.649 22.492 67.658 54.995.533 3.455.188 6.288-.845 9.396-2.699 8.122-6.637 15.845-10.882 23.277-8.841 15.465-20.09 29.387-30.219 44-22.016 31.788-34.926 66.037-35.357 105.226-.411 37.15 13.682 71.202 28.1 104.757 6.227 14.468 12.513 28.937 16.726 44.156 3.711 13.37 7.712 28.834 6.201 42.841.333-3.116-1.353 4.111-1.794 5.211-2.777 6.8-6.971 12.77-11.8 18.222-5.112 5.779-5.685 17.158-6.288 24.483-.14 1.609.017 18.181 2.981 14.838 23.252-26.232 28.637-66.167 26.507-100.052s-15.279-65.684-28.682-97.127c-7.487-17.576-14.873-35.38-19.05-54.088-1.85-8.289-3.573-17.146-3.009-25.67-.019.241.433-3.168.109-1.226-.429 2.639 1.019-3.398 1.139-3.749 1.431-4.469 3.371-8.75 5.462-12.925 16.176-32.396 43.002-58.047 57.248-91.596 13.775-32.418 23.182-79.635 2.038-111.127-18.252-27.194-54.431-38.439-85.721-34.001-84.444 12.018-127.617 103.994-209.089 122.12-30.657 6.812-67.358 2.241-89.022-22.812-13.491-15.63-19.684-35.813-27.086-54.687-6.522-16.639-14.481-32.128-26.637-45.378-45.794-49.912-122.37-56.541-174.087-12.351C68.763 37.889 53.48 69.8 47.547 103.78c-3.644 20.813-4.198 41.914-2.797 62.986 1.13 17.352 3.577 34.686 3.845 52.083.497 33.047-25.715 58.675-50.215 77.517-31.701 24.36-69.134 41.241-97.366 70.122-26.597 27.198-39.81 64.533-40.156 102.425s19.48 65.259 50.794 83.825 71.803 28.823 109.024 33.675c39.028 5.086 78.832 3.983 117.479-3.329 18.571-3.519 36.783-8.504 54.594-14.786 5.289-1.871 6.214-15.044 6.862-19.649.197-1.373 1.543-21.773-1.216-20.8l.035-.071z" fill="#caeef3"/><g fill="#82d7e2"><path d="M166.238 87.741a1.61 1.61 0 0 1 2.603-1.232l4.31 3.418a1.61 1.61 0 0 0 1.469.277l5.259-1.613a1.61 1.61 0 0 1 1.976 2.096l-1.919 5.155a1.61 1.61 0 0 0 .19 1.483l3.159 4.503a1.61 1.61 0 0 1-1.382 2.527l-5.496-.232a1.61 1.61 0 0 0-1.351.639l-3.306 4.396a1.61 1.61 0 0 1-2.831-.534l-1.478-5.298c-.142-.509-.525-.916-1.025-1.088l-5.202-1.786a1.61 1.61 0 0 1-.367-2.857l4.582-3.043c.44-.292.709-.783.717-1.311l.092-5.5zM98.306 197.793c.551-.372 1.29.049 1.25.713l-.165 2.743c-.016.264.099.518.307.681l2.166 1.69c.524.41.351 1.242-.292 1.409l-2.66.691a.8.8 0 0 0-.552.503l-.939 2.582c-.227.625-1.072.718-1.43.158l-1.479-2.316a.8.8 0 0 0-.649-.37l-2.746-.095c-.665-.023-1.014-.798-.592-1.311l1.746-2.122c.168-.204.224-.478.151-.732l-.758-2.641c-.184-.639.445-1.211 1.064-.968l2.558 1.004c.246.097.523.066.742-.081l2.277-1.538zm178.06-66.732c.551-.372 1.29.05 1.25.713l-.165 2.743c-.016.264.099.518.307.681l2.166 1.691c.524.409.352 1.241-.292 1.409l-2.659.69c-.256.067-.463.255-.553.503l-.938 2.582c-.228.625-1.073.718-1.431.158l-1.479-2.316a.8.8 0 0 0-.648-.37l-2.746-.095c-.665-.023-1.015-.798-.592-1.311l1.745-2.122a.8.8 0 0 0 .152-.731l-.759-2.641c-.183-.64.446-1.212 1.065-.969l2.557 1.005c.246.096.524.066.743-.082l2.277-1.538z"/></g><g fill="#caeef3"><path d="M336.07 202.33c.551-.372 1.29.049 1.25.713l-.165 2.743a.8.8 0 0 0 .307.68l2.166 1.691c.524.409.352 1.242-.292 1.409l-2.659.691a.8.8 0 0 0-.553.502l-.938 2.583c-.228.625-1.073.718-1.431.158l-1.479-2.316a.8.8 0 0 0-.648-.37l-2.746-.095c-.665-.023-1.015-.798-.592-1.312l1.745-2.122a.8.8 0 0 0 .152-.731l-.759-2.641c-.183-.639.446-1.211 1.065-.968l2.557 1.004a.8.8 0 0 0 .743-.082l2.277-1.537zM39.238 53.446c.551-.372 1.29.049 1.25.713l-.165 2.743a.8.8 0 0 0 .307.681l2.166 1.691c.524.409.352 1.242-.292 1.409l-2.66.691a.8.8 0 0 0-.552.503l-.939 2.582c-.227.625-1.072.718-1.43.158l-1.479-2.316a.8.8 0 0 0-.649-.37l-2.746-.095c-.665-.023-1.014-.798-.592-1.312l1.745-2.122a.8.8 0 0 0 .152-.731l-.759-2.641c-.184-.639.446-1.211 1.065-.968l2.558 1.004c.246.096.523.066.742-.082l2.277-1.538zm106.337 196.27c.551-.372 1.29.05 1.25.713l-.165 2.743a.8.8 0 0 0 .308.681l2.165 1.691c.525.409.352 1.241-.291 1.409l-2.66.69c-.256.067-.462.255-.552.503l-.939 2.582c-.227.625-1.072.718-1.43.158l-1.479-2.316c-.142-.222-.385-.361-.649-.37l-2.746-.095c-.664-.023-1.014-.798-.592-1.311l1.746-2.122a.8.8 0 0 0 .151-.731l-.758-2.641c-.184-.64.445-1.212 1.064-.969l2.558 1.005c.246.096.523.066.742-.082l2.277-1.538zm82.388-192.148c.551-.372 1.29.049 1.25.713l-.165 2.743a.8.8 0 0 0 .307.681l2.166 1.691c.524.409.352 1.242-.292 1.409l-2.659.691a.8.8 0 0 0-.553.503l-.938 2.582c-.227.625-1.073.718-1.431.158l-1.478-2.316c-.143-.223-.385-.361-.649-.37l-2.746-.095c-.665-.023-1.015-.798-.592-1.311l1.745-2.122a.8.8 0 0 0 .152-.731l-.759-2.641c-.183-.639.446-1.211 1.065-.968l2.558 1.004a.8.8 0 0 0 .742-.082l2.277-1.538z"/></g><g fill="#82d7e2"><path d="M336.48 69.437c.377-.548 1.218-.425 1.424.207l.849 2.613a.8.8 0 0 0 .534.521l2.635.782c.637.189.781 1.027.243 1.418l-2.223 1.615a.8.8 0 0 0-.331.67l.07 2.747c.017.665-.735 1.061-1.273.67l-2.223-1.615c-.214-.155-.49-.195-.739-.107l-2.591.916c-.627.221-1.236-.372-1.03-1.005l.849-2.613c.081-.251.034-.526-.126-.736l-1.672-2.181c-.404-.528-.028-1.29.637-1.29h2.748a.8.8 0 0 0 .661-.348l1.558-2.263zM19.833 66.616c.674-.979 2.177-.76 2.544.37l1.517 4.669c.146.449.503.797.955.931l4.706 1.397c1.139.338 1.396 1.836.435 2.534l-3.972 2.886a1.43 1.43 0 0 0-.59 1.196l.125 4.908c.03 1.188-1.315 1.895-2.276 1.196l-3.972-2.886c-.382-.277-.875-.349-1.32-.192l-4.629 1.636c-1.12.396-2.208-.665-1.841-1.795l1.517-4.669c.146-.449.061-.941-.226-1.315L9.82 73.585c-.723-.943-.05-2.306 1.138-2.305h4.909c.472 0 .913-.232 1.181-.621l2.783-4.044zm13.322 65.974c-.078-1.185 1.238-1.946 2.226-1.286l4.084 2.725c.392.262.889.314 1.327.139l4.56-1.819c1.104-.441 2.233.576 1.911 1.719l-1.33 4.726a1.43 1.43 0 0 0 .278 1.305l3.139 3.775c.76.913.142 2.302-1.045 2.349l-4.905.196c-.471.019-.903.268-1.155.667l-2.62 4.152c-.634 1.005-2.145.847-2.557-.268l-1.702-4.605c-.164-.442-.535-.776-.992-.892l-4.758-1.208c-1.152-.293-1.468-1.779-.535-2.515l3.854-3.042c.37-.292.573-.748.542-1.219l-.321-4.899z"/></g><g fill-rule="evenodd"><path d="M89.498 152.474c-.354 3.462-3.551 6.058-7.137 5.793l-.357-.036.459-.961c3.02.223 5.704-1.956 6.002-4.872s-1.904-5.465-4.924-5.687l-.257-1.015.359.017c3.586.265 6.21 3.289 5.855 6.761zm-4.182-.308c-.165 1.621-1.078 2.906-2.107 3.091a18.06 18.06 0 0 0 .637-3.2c.115-1.122.106-2.214.022-3.255.976.343 1.614 1.743 1.448 3.364zm-1.669-.123c-.638 6.243-4.642 11.049-6.866 10.885-1.818-.134-.998-3.456-.278-8.05l1.629.12c3.01.222 3.683-6.463.683-6.685l-1.629-.12c.222-4.631.088-8.023 1.906-7.889 2.225.164 5.194 5.485 4.555 11.739h.001zm-5.633 7.913c-.059.576-.295 1.031-.524 1.014s-.369-.5-.31-1.076.296-1.04.525-1.024.369.501.309 1.086zm1.708-16.716c-.059.576-.296 1.031-.524 1.015s-.369-.501-.31-1.076.296-1.041.525-1.024.368.51.309 1.085zm-4.82 11.327c-.962 1.282-2.383 2.066-3.892 1.954-2.494-.184-4.274-2.741-3.971-5.704s2.575-5.221 5.068-5.037c1.51.111 2.752 1.082 3.439 2.486l3.248.24c2.731.201 2.098 6.503-.644 6.301l-3.248-.24h.001zm-5.438-.846c-.055.537.567 1.018 1.391 1.079s1.534-.322 1.589-.859-.575-1.028-1.39-1.088-1.535.331-1.59.868z" fill="#caeef3"/><path d="M380.866 123.902c-2.264-2.642-6.371-2.951-9.166-.688l-.273.233.925.528c2.354-1.905 5.802-1.646 7.709.579s1.552 5.575-.801 7.48l.367.98a4.31 4.31 0 0 0 .285-.219c2.795-2.262 3.226-6.243.954-8.893zm-3.259 2.638c-1.06-1.237-2.542-1.772-3.494-1.337a18.02 18.02 0 0 1 2.348 2.265c.734.856 1.35 1.758 1.875 2.661.606-.838.331-2.352-.729-3.589zm-1.301 1.053c-4.084-4.765-10.114-6.43-11.847-5.026-1.417 1.147 1.15 3.408 4.362 6.772l1.269-1.028c2.346-1.899 6.711 3.209 4.373 5.101l-1.27 1.028c2.824 3.678 4.648 6.541 6.065 5.394 1.734-1.404 1.139-7.468-2.952-12.241h0zm-9.139-3.288c-.377-.44-.831-.679-1.009-.535s-.017.622.359 1.061.837.686 1.015.542.017-.622-.365-1.068zm10.935 12.757c-.377-.439-.831-.678-1.009-.534s-.017.622.359 1.061.837.686 1.015.542.011-.63-.365-1.069zm-10.419-6.555c-1.521-.505-3.135-.339-4.312.614-1.943 1.573-1.948 4.689-.009 6.95s5.092 2.821 7.035 1.248c1.177-.953 1.643-2.458 1.407-4.003l2.532-2.049c2.129-1.724-1.985-6.539-4.122-4.809l-2.531 2.049h0zm-3.985 3.795c-.351-.409-.115-1.159.528-1.679s1.443-.611 1.795-.201.114 1.173-.521 1.687-1.45.604-1.802.193z" fill="#82d7e2"/></g><g fill="#caeef3"><path d="M130.227 88.892c-.69-1.658-1.865-3.131-3.27-3.991.92-2.026 1.431-4.298.997-6.6-.486-2.579-2.223-4.482-4.241-5.403-3.091-1.443-6.131-.123-8.455 2.302-.179-.583-.434-1.136-.767-1.688-1.175-1.965-3.091-3.223-5.134-3.131-1.89.092-3.653 1.32-4.47 3.407l-.154.43c-.562-.338-1.175-.614-1.788-.767-4.291-1.105-8.021 2.394-9.196 7.245-.179.798-.358 1.78-.409 2.824-2.989 1.351-5.339 4.912-4.956 8.841.434 4.543 4.113 7.706 7.74 7.552a8.93 8.93 0 0 0 1.763 4.175c1.737 2.241 4.19 3.622 6.693 4.052 4.445.706 8.634-1.964 10.933-6.354 3.449 2.363 7.868 2.855 11.317.215 3.678-2.825 5.415-8.289 3.397-13.108zm128.222 72.941c-1.52-7.958-6.731-14.351-12.919-17.221-6.134-2.805-12.865-2.218-19.162-.326-3.474-9.785-8.468-19.505-17.805-21.788-4.994-1.239-9.988.131-13.788 4.306-.488.522-.977 1.109-1.357 1.761-5.754-6.915-13.57-11.416-21.821-9.654-7.057 1.5-13.463 8.284-15.634 16.503-8.088-5.088-17.642-6.523-25.621.326-4.723 4.045-7.763 10.242-7.708 17.287 0 2.544.434 5.088 1.194 7.437-4.18.456-8.143 3-10.911 6.849-4.506 6.328-5.157 14.612-2.389 22.114 5.212 14.025 18.131 17.417 29.585 14.612 1.682 12.198 9.825 23.288 20.084 25.571 9.934 2.153 19.976-3.131 25.73-12.59 8.197 8.741 20.302 11.807 30.616 6.523 10.856-5.544 17.533-19.308 17.262-33.138 12.756-1.239 27.901-11.285 24.644-28.506v-.066zm7.919 46.459c-.2-1.474-1.072-2.665-2.236-3.157-.945-.393-2.009-.283-2.936.175-.763-1.343-1.972-2.359-3.299-2.687-.927-.229-1.836-.076-2.391.929-.172.306-.272.721-.381 1.114-.864-.568-1.936-.71-2.863-.284-.955.437-1.655 1.3-2.027 2.381-.737-.262-1.509-.371-2.254-.087-.991.382-1.827 1.398-1.927 2.676-.1 1.212.545 2.337 1.418 2.872.581.361 1.199.47 1.827.448.027.721.263 1.431.654 2.021.727 1.081 1.881 1.463 2.99 1.169.573-.153 1.1-.514 1.545-.962.228-.229.419-.491.6-.775l.119-.197c.045.055.09.099.109.142.163.241.318.47.518.677.445.459.981.809 1.563.973 1.173.327 2.354-.066 3.245-1.027.427-.459.745-1.049.945-1.693l.164-.557c.082.022.163.033.254.054 1.091.208 2.3.131 3.218-.688.936-.83 1.318-2.152 1.136-3.517h.009zm72.255 26.358c.534-2.304 2.865-4.165 5.972-4.933 2.524-.615 5.364-.444 7.84.273 2.039-2.1 5.268-3.687 8.812-4.199 2.476-.359 4.903-.12 6.384 1.451.461.478.728 1.126 1.019 1.741 2.306-.888 5.171-1.11 7.647-.444 2.548.683 4.418 2.031 5.413 3.721 1.966-.409 4.029-.58 6.02-.136 2.646.597 4.879 2.185 5.146 4.182.267 1.895-1.457 3.654-3.787 4.49-1.553.563-3.204.734-4.879.7-.073 1.127-.704 2.236-1.748 3.158-1.942 1.69-5.024 2.288-7.986 1.827-1.529-.239-2.937-.803-4.126-1.503-.607-.358-1.117-.768-1.603-1.212l-.315-.307c-.121.085-.243.154-.291.222-.437.376-.85.734-1.384 1.058-1.189.717-2.622 1.264-4.175 1.52-3.132.512-6.287-.103-8.666-1.605-1.141-.717-1.99-1.639-2.525-2.646l-.436-.871-.68.086c-2.913.324-6.141.205-8.593-1.076-2.5-1.297-3.52-3.363-3.034-5.497h-.025z"/></g><path fill-rule="evenodd" d="M197.025 141.99c5.159 7.08 15.403 8.671 22.866 3.548.247-.17.495-.34.73-.531a33.87 33.87 0 0 1-2.217-1.509c-6.284 4.313-14.885 2.979-19.229-2.983s-2.788-14.298 3.496-18.611c-.273-.843-.525-1.699-.728-2.532-.262.151-.509.321-.758.492-7.462 5.122-9.333 15.026-4.16 22.126zm8.702-5.973c2.416 3.315 6.028 4.953 8.503 4.051-1.922-1.829-3.771-3.856-5.443-6.151s-3.038-4.681-4.175-7.05c-1.688 1.982-1.3 5.836 1.115 9.15zm3.473-2.384c9.303 12.768 24.104 18.143 28.733 14.966 3.783-2.597-2.211-8.781-9.601-17.859l-3.39 2.327c-6.264 4.299-16.204-9.385-9.96-13.67l3.39-2.328c-6.355-9.789-10.364-17.335-14.147-14.738-4.631 3.178-4.341 18.514 4.976 31.302h-.001zm22.282 10.067c.858 1.177 1.95 1.868 2.425 1.542s.168-1.557-.689-2.733-1.964-1.888-2.44-1.562-.167 1.558.704 2.753zm-24.907-34.185c.858 1.177 1.95 1.868 2.425 1.542s.168-1.557-.689-2.733-1.964-1.888-2.44-1.562-.153 1.577.704 2.753zm24.843 18.519c3.716 1.569 7.801 1.472 10.942-.684 5.189-3.564 5.819-11.381 1.404-17.441s-12.219-8.088-17.407-4.527c-3.143 2.157-4.611 5.843-4.326 9.767l-6.759 4.639c-5.685 3.902 3.683 16.802 9.388 12.886l6.759-4.64h-.001zm10.753-8.733c.8 1.098.058 2.932-1.657 4.109s-3.744 1.246-4.544.147-.053-2.965 1.642-4.129 3.758-1.227 4.559-.127z" fill="#82d7e2"/><path d="M375.35 91.51c3.329 7.717 11.047 9.522 16.496 5.275 3.27 5.558 7.63 10.16 12.962 11.187 4.566.885 9.574-1.062 12.697-5.629 4.89 5.877 11.282 9.665 17.94 7.328 3.388-1.203 6.628-4.071 8.101-8.496 2.975-8.956 13.492-12.213 11.283-26.09-2.033-12.709-15.348-15.399-23.714-12.496a12.96 12.96 0 0 0-3.948 2.23c-.854-2.266-2.327-4.177-4.065-5.381-.236-.212-.471-.389-.766-.496-.795-.425-1.65-.743-2.504-.85-3.712-.46-7.041 2.372-9.338 6.23-2.593-3.894-6.422-6.16-10.399-5.487-4.301.743-7.777 4.567-9.486 9.664-2.563-1.522-5.479-1.841-8.278-.85-7.6 2.655-10.84 14.868-6.981 23.825v.035z" fill="#caeef3"/></g><defs><clipPath id="A"><path fill="#fff" d="M0 0h436v280H0z"/></clipPath></defs></svg>